<?xml version="1.0" encoding="UTF-8" standalone="no"?>
<!DOCTYPE svg PUBLIC "-//W3C//DTD SVG 1.1//EN"
 "http://www.w3.org/Graphics/SVG/1.1/DTD/svg11.dtd">
<!-- Generated by graphviz version 2.38.0 (20140413.2041)
 -->
<!-- Title: G Pages: 1 -->
<svg width="832pt" height="2031pt"
 viewBox="0.00 0.00 831.80 2031.39" xmlns="http://www.w3.org/2000/svg" xmlns:xlink="http://www.w3.org/1999/xlink">
<g id="graph0" class="graph" transform="scale(1 1) rotate(0) translate(4 2027.39)">
<title>G</title>
<polygon fill="white" stroke="none" points="-4,4 -4,-2027.39 827.796,-2027.39 827.796,4 -4,4"/>
<!-- n1 -->
<g id="node1" class="node"><title>n1</title>
<g id="a_node1"><a xlink:title="[grucell.lua]:20_">
<ellipse fill="none" stroke="black" cx="698.149" cy="-151.966" rx="125.792" ry="45.011"/>
<text text-anchor="middle" x="698.149" y="-168.766" font-family="Times,serif" font-size="14.00">Node1</text>
<text text-anchor="start" x="617.304" y="-154.766" font-family="Times,serif" font-size="14.00">module = nn.CAddTable</text>
<text text-anchor="start" x="617.304" y="-140.766" font-family="Times,serif" font-size="14.00">reverseMap = {}</text>
<text text-anchor="middle" x="698.149" y="-126.766" font-family="Times,serif" font-size="14.00">mapindex = {Node3,Node4}</text>
</a>
</g>
</g>
<!-- n2 -->
<g id="node2" class="node"><title>n2</title>
<g id="a_node2"><a xlink:title="[[C]]:&#45;1_">
<ellipse fill="none" stroke="black" cx="698.149" cy="-35.3553" rx="78.145" ry="35.2113"/>
<text text-anchor="middle" x="698.149" y="-45.1553" font-family="Times,serif" font-size="14.00">Node2</text>
<text text-anchor="start" x="650.944" y="-31.1553" font-family="Times,serif" font-size="14.00">input = {}</text>
<text text-anchor="middle" x="698.149" y="-17.1553" font-family="Times,serif" font-size="14.00">reverseMap = {}</text>
</a>
</g>
</g>
<!-- n1&#45;&gt;n2 -->
<g id="edge1" class="edge"><title>n1&#45;&gt;n2</title>
<path fill="none" stroke="black" d="M698.149,-106.654C698.149,-98.2351 698.149,-89.421 698.149,-80.9919"/>
<polygon fill="black" stroke="black" points="701.65,-80.9535 698.149,-70.9535 694.65,-80.9535 701.65,-80.9535"/>
</g>
<!-- n3 -->
<g id="node3" class="node"><title>n3</title>
<g id="a_node3"><a xlink:title="[grucell.lua]:6_">
<ellipse fill="none" stroke="black" cx="573.149" cy="-1648.1" rx="94.9112" ry="35.2113"/>
<text text-anchor="middle" x="573.149" y="-1657.9" font-family="Times,serif" font-size="14.00">Node3</text>
<text text-anchor="start" x="514.183" y="-1643.9" font-family="Times,serif" font-size="14.00">module = nn.Identity</text>
<text text-anchor="middle" x="573.149" y="-1629.9" font-family="Times,serif" font-size="14.00">reverseMap = {}</text>
</a>
</g>
</g>
<!-- n3&#45;&gt;n1 -->
<g id="edge2" class="edge"><title>n3&#45;&gt;n1</title>
<path fill="none" stroke="black" d="M629.438,-1619.62C690.126,-1585.59 778.149,-1521.44 778.149,-1435.68 778.149,-1435.68 778.149,-1435.68 778.149,-403.985 778.149,-327.344 782.18,-304.552 754.149,-233.22 750.288,-223.394 745.002,-213.61 739.21,-204.426"/>
<polygon fill="black" stroke="black" points="741.961,-202.241 733.532,-195.822 736.119,-206.096 741.961,-202.241"/>
</g>
<!-- n7 -->
<g id="node7" class="node"><title>n7</title>
<g id="a_node7"><a xlink:title="[grucell.lua]:22_">
<ellipse fill="none" stroke="black" cx="619.149" cy="-404.985" rx="130.692" ry="45.011"/>
<text text-anchor="middle" x="619.149" y="-421.785" font-family="Times,serif" font-size="14.00">Node7</text>
<text text-anchor="start" x="534.804" y="-407.785" font-family="Times,serif" font-size="14.00">module = nn.CSubTable</text>
<text text-anchor="start" x="534.804" y="-393.785" font-family="Times,serif" font-size="14.00">reverseMap = {}</text>
<text text-anchor="middle" x="619.149" y="-379.785" font-family="Times,serif" font-size="14.00">mapindex = {Node10,Node3}</text>
</a>
</g>
</g>
<!-- n3&#45;&gt;n7 -->
<g id="edge10" class="edge"><title>n3&#45;&gt;n7</title>
<path fill="none" stroke="black" d="M605.069,-1614.74C614.501,-1603.52 623.949,-1590.33 630.149,-1576.74 656.586,-1518.82 655.149,-1499.35 655.149,-1435.68 655.149,-1435.68 655.149,-1435.68 655.149,-637.205 655.149,-576.079 642.714,-506.934 632.46,-460.311"/>
<polygon fill="black" stroke="black" points="635.847,-459.416 630.244,-450.424 629.016,-460.947 635.847,-459.416"/>
</g>
<!-- n25 -->
<g id="node25" class="node"><title>n25</title>
<g id="a_node25"><a xlink:title="[grucell.lua]:8_">
<ellipse fill="none" stroke="black" cx="491.149" cy="-1541.39" rx="129.935" ry="35.2113"/>
<text text-anchor="middle" x="491.149" y="-1551.19" font-family="Times,serif" font-size="14.00">Node25</text>
<text text-anchor="start" x="407.249" y="-1537.19" font-family="Times,serif" font-size="14.00">module = nn.Linear(10 &#45;&gt; 30)</text>
<text text-anchor="middle" x="491.149" y="-1523.19" font-family="Times,serif" font-size="14.00">reverseMap = {}</text>
</a>
</g>
</g>
<!-- n3&#45;&gt;n25 -->
<g id="edge30" class="edge"><title>n3&#45;&gt;n25</title>
<path fill="none" stroke="black" d="M547.204,-1613.97C539.799,-1604.51 531.634,-1594.09 523.88,-1584.18"/>
<polygon fill="black" stroke="black" points="526.411,-1581.74 517.49,-1576.02 520.9,-1586.05 526.411,-1581.74"/>
</g>
<!-- n4 -->
<g id="node4" class="node"><title>n4</title>
<g id="a_node4"><a xlink:title="[grucell.lua]:21_">
<ellipse fill="none" stroke="black" cx="619.149" cy="-278.475" rx="125.792" ry="45.011"/>
<text text-anchor="middle" x="619.149" y="-295.275" font-family="Times,serif" font-size="14.00">Node4</text>
<text text-anchor="start" x="538.304" y="-281.275" font-family="Times,serif" font-size="14.00">module = nn.CMulTable</text>
<text text-anchor="start" x="538.304" y="-267.275" font-family="Times,serif" font-size="14.00">reverseMap = {}</text>
<text text-anchor="middle" x="619.149" y="-253.275" font-family="Times,serif" font-size="14.00">mapindex = {Node6,Node7}</text>
</a>
</g>
</g>
<!-- n4&#45;&gt;n1 -->
<g id="edge3" class="edge"><title>n4&#45;&gt;n1</title>
<path fill="none" stroke="black" d="M646.558,-234.277C652.556,-224.825 658.965,-214.724 665.154,-204.968"/>
<polygon fill="black" stroke="black" points="668.12,-206.828 670.522,-196.509 662.209,-203.078 668.12,-206.828"/>
</g>
<!-- n5 -->
<g id="node5" class="node"><title>n5</title>
<g id="a_node5"><a xlink:title="[[C]]:&#45;1_&#45;2">
<ellipse fill="none" stroke="black" cx="522.149" cy="-1764.71" rx="78.145" ry="45.011"/>
<text text-anchor="middle" x="522.149" y="-1781.51" font-family="Times,serif" font-size="14.00">Node5</text>
<text text-anchor="start" x="474.944" y="-1767.51" font-family="Times,serif" font-size="14.00">input = {}</text>
<text text-anchor="start" x="474.944" y="-1753.51" font-family="Times,serif" font-size="14.00">selectindex = 2</text>
<text text-anchor="middle" x="522.149" y="-1739.51" font-family="Times,serif" font-size="14.00">reverseMap = {}</text>
</a>
</g>
</g>
<!-- n5&#45;&gt;n3 -->
<g id="edge4" class="edge"><title>n5&#45;&gt;n3</title>
<path fill="none" stroke="black" d="M541.285,-1720.71C545.397,-1711.47 549.744,-1701.7 553.862,-1692.44"/>
<polygon fill="black" stroke="black" points="557.182,-1693.59 558.049,-1683.03 550.786,-1690.75 557.182,-1693.59"/>
</g>
<!-- n6 -->
<g id="node6" class="node"><title>n6</title>
<g id="a_node6"><a xlink:title="[grucell.lua]:15_">
<ellipse fill="none" stroke="black" cx="512.149" cy="-764.715" rx="97.4405" ry="35.2113"/>
<text text-anchor="middle" x="512.149" y="-774.515" font-family="Times,serif" font-size="14.00">Node6</text>
<text text-anchor="start" x="451.228" y="-760.515" font-family="Times,serif" font-size="14.00">module = nn.Sigmoid</text>
<text text-anchor="middle" x="512.149" y="-746.515" font-family="Times,serif" font-size="14.00">reverseMap = {}</text>
</a>
</g>
</g>
<!-- n6&#45;&gt;n4 -->
<g id="edge5" class="edge"><title>n6&#45;&gt;n4</title>
<path fill="none" stroke="black" d="M497.192,-729.744C467.385,-656.468 409.209,-480.44 479.149,-359.73 489.53,-341.814 505.585,-327.554 523.173,-316.332"/>
<polygon fill="black" stroke="black" points="525.155,-319.224 531.913,-311.065 521.541,-313.229 525.155,-319.224"/>
</g>
<!-- n7&#45;&gt;n4 -->
<g id="edge6" class="edge"><title>n7&#45;&gt;n4</title>
<path fill="none" stroke="black" d="M619.149,-359.386C619.149,-351.151 619.149,-342.466 619.149,-333.977"/>
<polygon fill="black" stroke="black" points="622.65,-333.763 619.149,-323.763 615.65,-333.763 622.65,-333.763"/>
</g>
<!-- n8 -->
<g id="node8" class="node"><title>n8</title>
<g id="a_node8"><a xlink:title="[[C]]:&#45;1_ split at [...davemo88/torch/install/share/lua/5.1/nngraph/gmodule.lua]:96&#45;mnode">
<ellipse fill="none" stroke="black" cx="379.149" cy="-1881.32" rx="81.6087" ry="35.2113"/>
<text text-anchor="middle" x="379.149" y="-1891.12" font-family="Times,serif" font-size="14.00">Node8</text>
<text text-anchor="start" x="329.305" y="-1877.12" font-family="Times,serif" font-size="14.00">reverseMap = {}</text>
<text text-anchor="middle" x="379.149" y="-1863.12" font-family="Times,serif" font-size="14.00">nSplitOutputs = 2</text>
</a>
</g>
</g>
<!-- n8&#45;&gt;n5 -->
<g id="edge7" class="edge"><title>n8&#45;&gt;n5</title>
<path fill="none" stroke="black" d="M417.095,-1849.91C433.097,-1837.08 451.997,-1821.93 469.324,-1808.05"/>
<polygon fill="black" stroke="black" points="471.544,-1810.75 477.159,-1801.77 467.167,-1805.29 471.544,-1810.75"/>
</g>
<!-- n26 -->
<g id="node26" class="node"><title>n26</title>
<g id="a_node26"><a xlink:title="[[C]]:&#45;1_&#45;1">
<ellipse fill="none" stroke="black" cx="292.149" cy="-1764.71" rx="78.145" ry="45.011"/>
<text text-anchor="middle" x="292.149" y="-1781.51" font-family="Times,serif" font-size="14.00">Node26</text>
<text text-anchor="start" x="244.944" y="-1767.51" font-family="Times,serif" font-size="14.00">input = {}</text>
<text text-anchor="start" x="244.944" y="-1753.51" font-family="Times,serif" font-size="14.00">selectindex = 1</text>
<text text-anchor="middle" x="292.149" y="-1739.51" font-family="Times,serif" font-size="14.00">reverseMap = {}</text>
</a>
</g>
</g>
<!-- n8&#45;&gt;n26 -->
<g id="edge31" class="edge"><title>n8&#45;&gt;n26</title>
<path fill="none" stroke="black" d="M354.219,-1847.48C346.38,-1837.15 337.551,-1825.52 329.065,-1814.34"/>
<polygon fill="black" stroke="black" points="331.799,-1812.15 322.965,-1806.3 326.223,-1816.39 331.799,-1812.15"/>
</g>
<!-- n9 -->
<g id="node9" class="node"><title>n9</title>
<g id="a_node9"><a xlink:title="[grucell.lua]:15_">
<ellipse fill="none" stroke="black" cx="516.149" cy="-881.325" rx="109.892" ry="35.2113"/>
<text text-anchor="middle" x="516.149" y="-891.125" font-family="Times,serif" font-size="14.00">Node9</text>
<text text-anchor="start" x="446.406" y="-877.125" font-family="Times,serif" font-size="14.00">module = nn.SelectTable</text>
<text text-anchor="middle" x="516.149" y="-863.125" font-family="Times,serif" font-size="14.00">reverseMap = {}</text>
</a>
</g>
</g>
<!-- n9&#45;&gt;n6 -->
<g id="edge8" class="edge"><title>n9&#45;&gt;n6</title>
<path fill="none" stroke="black" d="M514.949,-845.938C514.558,-834.719 514.117,-822.096 513.704,-810.242"/>
<polygon fill="black" stroke="black" points="517.196,-809.949 513.349,-800.077 510.2,-810.193 517.196,-809.949"/>
</g>
<!-- n10 -->
<g id="node10" class="node"><title>n10</title>
<g id="a_node10"><a xlink:title="[grucell.lua]:16_">
<ellipse fill="none" stroke="black" cx="304.149" cy="-521.595" rx="83.6272" ry="35.2113"/>
<text text-anchor="middle" x="304.149" y="-531.395" font-family="Times,serif" font-size="14.00">Node10</text>
<text text-anchor="start" x="253.061" y="-517.395" font-family="Times,serif" font-size="14.00">module = nn.Tanh</text>
<text text-anchor="middle" x="304.149" y="-503.395" font-family="Times,serif" font-size="14.00">reverseMap = {}</text>
</a>
</g>
</g>
<!-- n10&#45;&gt;n7 -->
<g id="edge9" class="edge"><title>n10&#45;&gt;n7</title>
<path fill="none" stroke="black" d="M366.383,-497.952C410.431,-481.925 470.402,-460.105 520.875,-441.741"/>
<polygon fill="black" stroke="black" points="522.308,-444.944 530.509,-438.236 519.915,-438.366 522.308,-444.944"/>
</g>
<!-- n11 -->
<g id="node11" class="node"><title>n11</title>
<g id="a_node11"><a xlink:title="[[C]]:&#45;1_">
<ellipse fill="none" stroke="black" cx="379.149" cy="-1988.03" rx="78.145" ry="35.2113"/>
<text text-anchor="middle" x="379.149" y="-1997.83" font-family="Times,serif" font-size="14.00">Node11</text>
<text text-anchor="start" x="331.944" y="-1983.83" font-family="Times,serif" font-size="14.00">input = {}</text>
<text text-anchor="middle" x="379.149" y="-1969.83" font-family="Times,serif" font-size="14.00">reverseMap = {}</text>
</a>
</g>
</g>
<!-- n11&#45;&gt;n8 -->
<g id="edge11" class="edge"><title>n11&#45;&gt;n8</title>
<path fill="none" stroke="black" d="M379.149,-1952.45C379.149,-1944.32 379.149,-1935.54 379.149,-1927.04"/>
<polygon fill="black" stroke="black" points="382.65,-1926.86 379.149,-1916.86 375.65,-1926.86 382.65,-1926.86"/>
</g>
<!-- n12 -->
<g id="node12" class="node"><title>n12</title>
<g id="a_node12"><a xlink:title="[grucell.lua]:13_">
<ellipse fill="none" stroke="black" cx="491.149" cy="-1094.75" rx="104.429" ry="35.2113"/>
<text text-anchor="middle" x="491.149" y="-1104.55" font-family="Times,serif" font-size="14.00">Node12</text>
<text text-anchor="start" x="425.282" y="-1090.55" font-family="Times,serif" font-size="14.00">module = nn.SplitTable</text>
<text text-anchor="middle" x="491.149" y="-1076.55" font-family="Times,serif" font-size="14.00">reverseMap = {}</text>
</a>
</g>
</g>
<!-- n12&#45;&gt;n9 -->
<g id="edge12" class="edge"><title>n12&#45;&gt;n9</title>
<path fill="none" stroke="black" d="M495.222,-1059.31C499.489,-1023.22 506.21,-966.382 510.879,-926.893"/>
<polygon fill="black" stroke="black" points="514.38,-927.091 512.079,-916.749 507.429,-926.269 514.38,-927.091"/>
</g>
<!-- n24 -->
<g id="node24" class="node"><title>n24</title>
<g id="a_node24"><a xlink:title="[grucell.lua]:14_">
<ellipse fill="none" stroke="black" cx="337.149" cy="-988.036" rx="109.892" ry="35.2113"/>
<text text-anchor="middle" x="337.149" y="-997.836" font-family="Times,serif" font-size="14.00">Node24</text>
<text text-anchor="start" x="267.406" y="-983.836" font-family="Times,serif" font-size="14.00">module = nn.SelectTable</text>
<text text-anchor="middle" x="337.149" y="-969.836" font-family="Times,serif" font-size="14.00">reverseMap = {}</text>
</a>
</g>
</g>
<!-- n12&#45;&gt;n24 -->
<g id="edge29" class="edge"><title>n12&#45;&gt;n24</title>
<path fill="none" stroke="black" d="M445.777,-1062.9C428.774,-1051.34 409.281,-1038.08 391.544,-1026.02"/>
<polygon fill="black" stroke="black" points="393.234,-1022.94 382.996,-1020.21 389.298,-1028.73 393.234,-1022.94"/>
</g>
<!-- n13 -->
<g id="node13" class="node"><title>n13</title>
<g id="a_node13"><a xlink:title="[grucell.lua]:16_">
<ellipse fill="none" stroke="black" cx="260.149" cy="-638.205" rx="135.591" ry="45.011"/>
<text text-anchor="middle" x="260.149" y="-655.005" font-family="Times,serif" font-size="14.00">Node13</text>
<text text-anchor="start" x="172.304" y="-641.005" font-family="Times,serif" font-size="14.00">module = nn.CAddTable</text>
<text text-anchor="start" x="172.304" y="-627.005" font-family="Times,serif" font-size="14.00">reverseMap = {}</text>
<text text-anchor="middle" x="260.149" y="-613.005" font-family="Times,serif" font-size="14.00">mapindex = {Node15,Node16}</text>
</a>
</g>
</g>
<!-- n13&#45;&gt;n10 -->
<g id="edge13" class="edge"><title>n13&#45;&gt;n10</title>
<path fill="none" stroke="black" d="M277.035,-593.222C280.452,-584.321 284.044,-574.966 287.454,-566.083"/>
<polygon fill="black" stroke="black" points="290.751,-567.262 291.067,-556.672 284.216,-564.753 290.751,-567.262"/>
</g>
<!-- n14 -->
<g id="node14" class="node"><title>n14</title>
<g id="a_node14"><a xlink:title="[grucell.lua]:13_">
<ellipse fill="none" stroke="black" cx="491.149" cy="-1201.46" rx="123.686" ry="35.2113"/>
<text text-anchor="middle" x="491.149" y="-1211.26" font-family="Times,serif" font-size="14.00">Node14</text>
<text text-anchor="start" x="411.579" y="-1197.26" font-family="Times,serif" font-size="14.00">module = nn.Reshape(2x10)</text>
<text text-anchor="middle" x="491.149" y="-1183.26" font-family="Times,serif" font-size="14.00">reverseMap = {}</text>
</a>
</g>
</g>
<!-- n14&#45;&gt;n12 -->
<g id="edge14" class="edge"><title>n14&#45;&gt;n12</title>
<path fill="none" stroke="black" d="M491.149,-1165.88C491.149,-1157.75 491.149,-1148.97 491.149,-1140.46"/>
<polygon fill="black" stroke="black" points="494.65,-1140.29 491.149,-1130.29 487.65,-1140.29 494.65,-1140.29"/>
</g>
<!-- n15 -->
<g id="node15" class="node"><title>n15</title>
<g id="a_node15"><a xlink:title="[grucell.lua]:17_">
<ellipse fill="none" stroke="black" cx="94.1495" cy="-1318.07" rx="94.2992" ry="35.2113"/>
<text text-anchor="middle" x="94.1495" y="-1327.87" font-family="Times,serif" font-size="14.00">Node15</text>
<text text-anchor="start" x="35.5757" y="-1313.87" font-family="Times,serif" font-size="14.00">module = nn.Narrow</text>
<text text-anchor="middle" x="94.1495" y="-1299.87" font-family="Times,serif" font-size="14.00">reverseMap = {}</text>
</a>
</g>
</g>
<!-- n15&#45;&gt;n13 -->
<g id="edge15" class="edge"><title>n15&#45;&gt;n13</title>
<path fill="none" stroke="black" d="M94.1495,-1282.57C94.1495,-1239.02 94.1495,-1161.84 94.1495,-1095.75 94.1495,-1095.75 94.1495,-1095.75 94.1495,-880.325 94.1495,-808.223 74.5836,-779.068 115.149,-719.46 126.835,-702.289 143.46,-688.421 161.309,-677.357"/>
<polygon fill="black" stroke="black" points="163.313,-680.24 170.154,-672.15 159.761,-674.208 163.313,-680.24"/>
</g>
<!-- n16 -->
<g id="node16" class="node"><title>n16</title>
<g id="a_node16"><a xlink:title="[grucell.lua]:18_">
<ellipse fill="none" stroke="black" cx="260.149" cy="-764.715" rx="135.591" ry="45.011"/>
<text text-anchor="middle" x="260.149" y="-781.515" font-family="Times,serif" font-size="14.00">Node16</text>
<text text-anchor="start" x="172.304" y="-767.515" font-family="Times,serif" font-size="14.00">module = nn.CMulTable</text>
<text text-anchor="start" x="172.304" y="-753.515" font-family="Times,serif" font-size="14.00">reverseMap = {}</text>
<text text-anchor="middle" x="260.149" y="-739.515" font-family="Times,serif" font-size="14.00">mapindex = {Node19,Node20}</text>
</a>
</g>
</g>
<!-- n16&#45;&gt;n13 -->
<g id="edge16" class="edge"><title>n16&#45;&gt;n13</title>
<path fill="none" stroke="black" d="M260.149,-719.116C260.149,-710.881 260.149,-702.196 260.149,-693.707"/>
<polygon fill="black" stroke="black" points="263.65,-693.493 260.149,-683.493 256.65,-693.493 263.65,-693.493"/>
</g>
<!-- n17 -->
<g id="node17" class="node"><title>n17</title>
<g id="a_node17"><a xlink:title="[grucell.lua]:9_">
<ellipse fill="none" stroke="black" cx="491.149" cy="-1318.07" rx="135.591" ry="45.011"/>
<text text-anchor="middle" x="491.149" y="-1334.87" font-family="Times,serif" font-size="14.00">Node17</text>
<text text-anchor="start" x="403.304" y="-1320.87" font-family="Times,serif" font-size="14.00">module = nn.CAddTable</text>
<text text-anchor="start" x="403.304" y="-1306.87" font-family="Times,serif" font-size="14.00">reverseMap = {}</text>
<text text-anchor="middle" x="491.149" y="-1292.87" font-family="Times,serif" font-size="14.00">mapindex = {Node21,Node22}</text>
</a>
</g>
</g>
<!-- n17&#45;&gt;n14 -->
<g id="edge17" class="edge"><title>n17&#45;&gt;n14</title>
<path fill="none" stroke="black" d="M491.149,-1272.76C491.149,-1264.34 491.149,-1255.52 491.149,-1247.09"/>
<polygon fill="black" stroke="black" points="494.65,-1247.06 491.149,-1237.06 487.65,-1247.06 494.65,-1247.06"/>
</g>
<!-- n18 -->
<g id="node18" class="node"><title>n18</title>
<g id="a_node18"><a xlink:title="[grucell.lua]:7_">
<ellipse fill="none" stroke="black" cx="209.149" cy="-1541.39" rx="129.935" ry="35.2113"/>
<text text-anchor="middle" x="209.149" y="-1551.19" font-family="Times,serif" font-size="14.00">Node18</text>
<text text-anchor="start" x="125.249" y="-1537.19" font-family="Times,serif" font-size="14.00">module = nn.Linear(10 &#45;&gt; 30)</text>
<text text-anchor="middle" x="209.149" y="-1523.19" font-family="Times,serif" font-size="14.00">reverseMap = {}</text>
</a>
</g>
</g>
<!-- n18&#45;&gt;n15 -->
<g id="edge18" class="edge"><title>n18&#45;&gt;n15</title>
<path fill="none" stroke="black" d="M146.375,-1510.38C130.694,-1499.83 115.654,-1486.43 106.149,-1470.03 87.6071,-1438.05 85.8131,-1395.66 87.9634,-1363.94"/>
<polygon fill="black" stroke="black" points="91.4806,-1363.88 88.8254,-1353.62 84.5049,-1363.3 91.4806,-1363.88"/>
</g>
<!-- n21 -->
<g id="node21" class="node"><title>n21</title>
<g id="a_node21"><a xlink:title="[grucell.lua]:10_">
<ellipse fill="none" stroke="black" cx="209.149" cy="-1434.68" rx="94.2992" ry="35.2113"/>
<text text-anchor="middle" x="209.149" y="-1444.48" font-family="Times,serif" font-size="14.00">Node21</text>
<text text-anchor="start" x="150.576" y="-1430.48" font-family="Times,serif" font-size="14.00">module = nn.Narrow</text>
<text text-anchor="middle" x="209.149" y="-1416.48" font-family="Times,serif" font-size="14.00">reverseMap = {}</text>
</a>
</g>
</g>
<!-- n18&#45;&gt;n21 -->
<g id="edge26" class="edge"><title>n18&#45;&gt;n21</title>
<path fill="none" stroke="black" d="M209.149,-1505.81C209.149,-1497.68 209.149,-1488.9 209.149,-1480.39"/>
<polygon fill="black" stroke="black" points="212.65,-1480.22 209.149,-1470.22 205.65,-1480.22 212.65,-1480.22"/>
</g>
<!-- n19 -->
<g id="node19" class="node"><title>n19</title>
<g id="a_node19"><a xlink:title="[grucell.lua]:14_">
<ellipse fill="none" stroke="black" cx="291.149" cy="-881.325" rx="97.4405" ry="35.2113"/>
<text text-anchor="middle" x="291.149" y="-891.125" font-family="Times,serif" font-size="14.00">Node19</text>
<text text-anchor="start" x="230.228" y="-877.125" font-family="Times,serif" font-size="14.00">module = nn.Sigmoid</text>
<text text-anchor="middle" x="291.149" y="-863.125" font-family="Times,serif" font-size="14.00">reverseMap = {}</text>
</a>
</g>
</g>
<!-- n19&#45;&gt;n16 -->
<g id="edge19" class="edge"><title>n19&#45;&gt;n16</title>
<path fill="none" stroke="black" d="M281.848,-845.938C279.596,-837.61 277.134,-828.508 274.703,-819.521"/>
<polygon fill="black" stroke="black" points="278.079,-818.596 272.089,-809.857 271.322,-820.424 278.079,-818.596"/>
</g>
<!-- n20 -->
<g id="node20" class="node"><title>n20</title>
<g id="a_node20"><a xlink:title="[grucell.lua]:19_">
<ellipse fill="none" stroke="black" cx="235.149" cy="-1201.46" rx="94.2992" ry="35.2113"/>
<text text-anchor="middle" x="235.149" y="-1211.26" font-family="Times,serif" font-size="14.00">Node20</text>
<text text-anchor="start" x="176.576" y="-1197.26" font-family="Times,serif" font-size="14.00">module = nn.Narrow</text>
<text text-anchor="middle" x="235.149" y="-1183.26" font-family="Times,serif" font-size="14.00">reverseMap = {}</text>
</a>
</g>
</g>
<!-- n20&#45;&gt;n16 -->
<g id="edge20" class="edge"><title>n20&#45;&gt;n16</title>
<path fill="none" stroke="black" d="M219.342,-1166.39C191.638,-1101.62 141.241,-957.264 185.149,-845.97 189.524,-834.882 196.232,-824.425 203.875,-814.952"/>
<polygon fill="black" stroke="black" points="206.639,-817.105 210.484,-807.233 201.321,-812.553 206.639,-817.105"/>
</g>
<!-- n21&#45;&gt;n17 -->
<g id="edge21" class="edge"><title>n21&#45;&gt;n17</title>
<path fill="none" stroke="black" d="M271.734,-1408.24C308.541,-1393.28 355.801,-1374.08 397.027,-1357.32"/>
<polygon fill="black" stroke="black" points="398.597,-1360.46 406.543,-1353.45 395.961,-1353.98 398.597,-1360.46"/>
</g>
<!-- n22 -->
<g id="node22" class="node"><title>n22</title>
<g id="a_node22"><a xlink:title="[grucell.lua]:11_">
<ellipse fill="none" stroke="black" cx="491.149" cy="-1434.68" rx="94.2992" ry="35.2113"/>
<text text-anchor="middle" x="491.149" y="-1444.48" font-family="Times,serif" font-size="14.00">Node22</text>
<text text-anchor="start" x="432.576" y="-1430.48" font-family="Times,serif" font-size="14.00">module = nn.Narrow</text>
<text text-anchor="middle" x="491.149" y="-1416.48" font-family="Times,serif" font-size="14.00">reverseMap = {}</text>
</a>
</g>
</g>
<!-- n22&#45;&gt;n17 -->
<g id="edge22" class="edge"><title>n22&#45;&gt;n17</title>
<path fill="none" stroke="black" d="M491.149,-1399.29C491.149,-1391.23 491.149,-1382.45 491.149,-1373.75"/>
<polygon fill="black" stroke="black" points="494.65,-1373.63 491.149,-1363.63 487.65,-1373.63 494.65,-1373.63"/>
</g>
<!-- n23 -->
<g id="node23" class="node"><title>n23</title>
<g id="a_node23"><a xlink:title="[grucell.lua]:5_">
<ellipse fill="none" stroke="black" cx="264.149" cy="-1648.1" rx="94.9112" ry="35.2113"/>
<text text-anchor="middle" x="264.149" y="-1657.9" font-family="Times,serif" font-size="14.00">Node23</text>
<text text-anchor="start" x="205.183" y="-1643.9" font-family="Times,serif" font-size="14.00">module = nn.Identity</text>
<text text-anchor="middle" x="264.149" y="-1629.9" font-family="Times,serif" font-size="14.00">reverseMap = {}</text>
</a>
</g>
</g>
<!-- n23&#45;&gt;n18 -->
<g id="edge23" class="edge"><title>n23&#45;&gt;n18</title>
<path fill="none" stroke="black" d="M246.293,-1613.1C241.682,-1604.32 236.657,-1594.76 231.835,-1585.58"/>
<polygon fill="black" stroke="black" points="234.854,-1583.8 227.105,-1576.57 228.657,-1587.05 234.854,-1583.8"/>
</g>
<!-- n24&#45;&gt;n19 -->
<g id="edge24" class="edge"><title>n24&#45;&gt;n19</title>
<path fill="none" stroke="black" d="M322.087,-952.75C318.276,-944.073 314.133,-934.642 310.154,-925.586"/>
<polygon fill="black" stroke="black" points="313.315,-924.078 306.088,-916.331 306.906,-926.894 313.315,-924.078"/>
</g>
<!-- n25&#45;&gt;n20 -->
<g id="edge25" class="edge"><title>n25&#45;&gt;n20</title>
<path fill="none" stroke="black" d="M435.934,-1509.32C419.326,-1498.31 401.884,-1484.91 388.149,-1470.03 325.013,-1401.64 277.04,-1302.66 252.772,-1246.23"/>
<polygon fill="black" stroke="black" points="255.931,-1244.72 248.8,-1236.88 249.488,-1247.45 255.931,-1244.72"/>
</g>
<!-- n25&#45;&gt;n22 -->
<g id="edge27" class="edge"><title>n25&#45;&gt;n22</title>
<path fill="none" stroke="black" d="M491.149,-1505.81C491.149,-1497.68 491.149,-1488.9 491.149,-1480.39"/>
<polygon fill="black" stroke="black" points="494.65,-1480.22 491.149,-1470.22 487.65,-1480.22 494.65,-1480.22"/>
</g>
<!-- n26&#45;&gt;n23 -->
<g id="edge28" class="edge"><title>n26&#45;&gt;n23</title>
<path fill="none" stroke="black" d="M281.404,-1719.73C279.298,-1711.1 277.088,-1702.06 274.979,-1693.43"/>
<polygon fill="black" stroke="black" points="278.336,-1692.42 272.562,-1683.53 271.536,-1694.08 278.336,-1692.42"/>
</g>
</g>
</svg>
