<?xml version="1.0" encoding="UTF-8" standalone="no"?>
<!DOCTYPE svg PUBLIC "-//W3C//DTD SVG 1.1//EN"
 "http://www.w3.org/Graphics/SVG/1.1/DTD/svg11.dtd">
<!-- Generated by graphviz version 2.38.0 (20140413.2041)
 -->
<!-- Title: G Pages: 1 -->
<svg width="635pt" height="1099pt"
 viewBox="0.00 0.00 634.77 1098.50" xmlns="http://www.w3.org/2000/svg" xmlns:xlink="http://www.w3.org/1999/xlink">
<g id="graph0" class="graph" transform="scale(1 1) rotate(0) translate(4 1094.5)">
<title>G</title>
<polygon fill="white" stroke="none" points="-4,4 -4,-1094.5 630.773,-1094.5 630.773,4 -4,4"/>
<!-- n1 -->
<g id="node1" class="node"><title>n1</title>
<g id="a_node1"><a xlink:title="[nngraph_warmup.lua]:16_">
<ellipse fill="none" stroke="black" cx="213.705" cy="-151.966" rx="125.792" ry="45.011"/>
<text text-anchor="middle" x="213.705" y="-168.766" font-family="Times,serif" font-size="14.00">Node1</text>
<text text-anchor="start" x="132.86" y="-154.766" font-family="Times,serif" font-size="14.00">module = nn.CAddTable</text>
<text text-anchor="start" x="132.86" y="-140.766" font-family="Times,serif" font-size="14.00">reverseMap = {}</text>
<text text-anchor="middle" x="213.705" y="-126.766" font-family="Times,serif" font-size="14.00">mapindex = {Node3,Node4}</text>
</a>
</g>
</g>
<!-- n2 -->
<g id="node2" class="node"><title>n2</title>
<g id="a_node2"><a xlink:title="[[C]]:&#45;1_">
<ellipse fill="none" stroke="black" cx="213.705" cy="-35.3553" rx="78.145" ry="35.2113"/>
<text text-anchor="middle" x="213.705" y="-45.1553" font-family="Times,serif" font-size="14.00">Node2</text>
<text text-anchor="start" x="166.5" y="-31.1553" font-family="Times,serif" font-size="14.00">input = {}</text>
<text text-anchor="middle" x="213.705" y="-17.1553" font-family="Times,serif" font-size="14.00">reverseMap = {}</text>
</a>
</g>
</g>
<!-- n1&#45;&gt;n2 -->
<g id="edge1" class="edge"><title>n1&#45;&gt;n2</title>
<path fill="none" stroke="black" d="M213.705,-106.654C213.705,-98.2351 213.705,-89.421 213.705,-80.9919"/>
<polygon fill="black" stroke="black" points="217.205,-80.9535 213.705,-70.9535 210.205,-80.9535 217.205,-80.9535"/>
</g>
<!-- n3 -->
<g id="node3" class="node"><title>n3</title>
<g id="a_node3"><a xlink:title="[nngraph_warmup.lua]:15_">
<ellipse fill="none" stroke="black" cx="332.705" cy="-278.475" rx="125.792" ry="45.011"/>
<text text-anchor="middle" x="332.705" y="-295.275" font-family="Times,serif" font-size="14.00">Node3</text>
<text text-anchor="start" x="251.86" y="-281.275" font-family="Times,serif" font-size="14.00">module = nn.CMulTable</text>
<text text-anchor="start" x="251.86" y="-267.275" font-family="Times,serif" font-size="14.00">reverseMap = {}</text>
<text text-anchor="middle" x="332.705" y="-253.275" font-family="Times,serif" font-size="14.00">mapindex = {Node5,Node6}</text>
</a>
</g>
</g>
<!-- n3&#45;&gt;n1 -->
<g id="edge2" class="edge"><title>n3&#45;&gt;n1</title>
<path fill="none" stroke="black" d="M292.417,-235.322C282.337,-224.775 271.432,-213.365 261.044,-202.496"/>
<polygon fill="black" stroke="black" points="263.391,-199.886 253.952,-195.075 258.331,-204.723 263.391,-199.886"/>
</g>
<!-- n4 -->
<g id="node4" class="node"><title>n4</title>
<g id="a_node4"><a xlink:title="[nngraph_warmup.lua]:6_">
<ellipse fill="none" stroke="black" cx="94.7054" cy="-278.475" rx="94.9112" ry="35.2113"/>
<text text-anchor="middle" x="94.7054" y="-288.275" font-family="Times,serif" font-size="14.00">Node4</text>
<text text-anchor="start" x="35.7386" y="-274.275" font-family="Times,serif" font-size="14.00">module = nn.Identity</text>
<text text-anchor="middle" x="94.7054" y="-260.275" font-family="Times,serif" font-size="14.00">reverseMap = {}</text>
</a>
</g>
</g>
<!-- n4&#45;&gt;n1 -->
<g id="edge3" class="edge"><title>n4&#45;&gt;n1</title>
<path fill="none" stroke="black" d="M125.971,-244.762C138.286,-231.877 152.701,-216.794 166.247,-202.621"/>
<polygon fill="black" stroke="black" points="168.857,-204.956 173.236,-195.309 163.796,-200.12 168.857,-204.956"/>
</g>
<!-- n5 -->
<g id="node5" class="node"><title>n5</title>
<g id="a_node5"><a xlink:title="[nngraph_warmup.lua]:13_">
<ellipse fill="none" stroke="black" cx="283.705" cy="-395.085" rx="91.3079" ry="35.2113"/>
<text text-anchor="middle" x="283.705" y="-404.885" font-family="Times,serif" font-size="14.00">Node5</text>
<text text-anchor="start" x="227.073" y="-390.885" font-family="Times,serif" font-size="14.00">module = nn.Square</text>
<text text-anchor="middle" x="283.705" y="-376.885" font-family="Times,serif" font-size="14.00">reverseMap = {}</text>
</a>
</g>
</g>
<!-- n5&#45;&gt;n3 -->
<g id="edge4" class="edge"><title>n5&#45;&gt;n3</title>
<path fill="none" stroke="black" d="M298.274,-360.009C301.956,-351.398 305.997,-341.945 309.976,-332.638"/>
<polygon fill="black" stroke="black" points="313.206,-333.987 313.919,-323.416 306.769,-331.235 313.206,-333.987"/>
</g>
<!-- n6 -->
<g id="node6" class="node"><title>n6</title>
<g id="a_node6"><a xlink:title="[nngraph_warmup.lua]:14_">
<ellipse fill="none" stroke="black" cx="488.705" cy="-395.085" rx="91.3079" ry="35.2113"/>
<text text-anchor="middle" x="488.705" y="-404.885" font-family="Times,serif" font-size="14.00">Node6</text>
<text text-anchor="start" x="432.073" y="-390.885" font-family="Times,serif" font-size="14.00">module = nn.Square</text>
<text text-anchor="middle" x="488.705" y="-376.885" font-family="Times,serif" font-size="14.00">reverseMap = {}</text>
</a>
</g>
</g>
<!-- n6&#45;&gt;n3 -->
<g id="edge5" class="edge"><title>n6&#45;&gt;n3</title>
<path fill="none" stroke="black" d="M446.9,-363.372C431.078,-351.748 412.702,-338.247 395.377,-325.519"/>
<polygon fill="black" stroke="black" points="397.103,-322.444 386.972,-319.344 392.959,-328.085 397.103,-322.444"/>
</g>
<!-- n7 -->
<g id="node7" class="node"><title>n7</title>
<g id="a_node7"><a xlink:title="[[C]]:&#45;1_&#45;3">
<ellipse fill="none" stroke="black" cx="94.7054" cy="-831.828" rx="78.145" ry="45.011"/>
<text text-anchor="middle" x="94.7054" y="-848.628" font-family="Times,serif" font-size="14.00">Node7</text>
<text text-anchor="start" x="47.4998" y="-834.628" font-family="Times,serif" font-size="14.00">input = {}</text>
<text text-anchor="start" x="47.4998" y="-820.628" font-family="Times,serif" font-size="14.00">selectindex = 3</text>
<text text-anchor="middle" x="94.7054" y="-806.628" font-family="Times,serif" font-size="14.00">reverseMap = {}</text>
</a>
</g>
</g>
<!-- n7&#45;&gt;n4 -->
<g id="edge6" class="edge"><title>n7&#45;&gt;n4</title>
<path fill="none" stroke="black" d="M94.7054,-786.317C94.7054,-741.624 94.7054,-670.793 94.7054,-609.507 94.7054,-609.507 94.7054,-609.507 94.7054,-500.796 94.7054,-439.612 94.7054,-368.914 94.7054,-324.209"/>
<polygon fill="black" stroke="black" points="98.2055,-323.977 94.7054,-313.977 91.2055,-323.977 98.2055,-323.977"/>
</g>
<!-- n8 -->
<g id="node8" class="node"><title>n8</title>
<g id="a_node8"><a xlink:title="[nngraph_warmup.lua]:13_">
<ellipse fill="none" stroke="black" cx="255.705" cy="-501.796" rx="83.6272" ry="35.2113"/>
<text text-anchor="middle" x="255.705" y="-511.596" font-family="Times,serif" font-size="14.00">Node8</text>
<text text-anchor="start" x="204.617" y="-497.596" font-family="Times,serif" font-size="14.00">module = nn.Tanh</text>
<text text-anchor="middle" x="255.705" y="-483.596" font-family="Times,serif" font-size="14.00">reverseMap = {}</text>
</a>
</g>
</g>
<!-- n8&#45;&gt;n5 -->
<g id="edge7" class="edge"><title>n8&#45;&gt;n5</title>
<path fill="none" stroke="black" d="M264.874,-466.51C267.122,-458.103 269.559,-448.987 271.912,-440.19"/>
<polygon fill="black" stroke="black" points="275.314,-441.013 274.517,-430.449 268.552,-439.205 275.314,-441.013"/>
</g>
<!-- n9 -->
<g id="node9" class="node"><title>n9</title>
<g id="a_node9"><a xlink:title="[nngraph_warmup.lua]:14_">
<ellipse fill="none" stroke="black" cx="502.705" cy="-501.796" rx="97.4405" ry="35.2113"/>
<text text-anchor="middle" x="502.705" y="-511.596" font-family="Times,serif" font-size="14.00">Node9</text>
<text text-anchor="start" x="441.783" y="-497.596" font-family="Times,serif" font-size="14.00">module = nn.Sigmoid</text>
<text text-anchor="middle" x="502.705" y="-483.596" font-family="Times,serif" font-size="14.00">reverseMap = {}</text>
</a>
</g>
</g>
<!-- n9&#45;&gt;n6 -->
<g id="edge8" class="edge"><title>n9&#45;&gt;n6</title>
<path fill="none" stroke="black" d="M498.082,-466.22C496.995,-458.088 495.821,-449.308 494.684,-440.802"/>
<polygon fill="black" stroke="black" points="498.118,-440.073 493.323,-430.625 491.18,-441.001 498.118,-440.073"/>
</g>
<!-- n10 -->
<g id="node10" class="node"><title>n10</title>
<g id="a_node10"><a xlink:title="[[C]]:&#45;1_ split at [...davemo88/torch/install/share/lua/5.1/nngraph/gmodule.lua]:96&#45;mnode">
<ellipse fill="none" stroke="black" cx="268.705" cy="-948.438" rx="81.6087" ry="35.2113"/>
<text text-anchor="middle" x="268.705" y="-958.238" font-family="Times,serif" font-size="14.00">Node10</text>
<text text-anchor="start" x="218.861" y="-944.238" font-family="Times,serif" font-size="14.00">reverseMap = {}</text>
<text text-anchor="middle" x="268.705" y="-930.238" font-family="Times,serif" font-size="14.00">nSplitOutputs = 3</text>
</a>
</g>
</g>
<!-- n10&#45;&gt;n7 -->
<g id="edge9" class="edge"><title>n10&#45;&gt;n7</title>
<path fill="none" stroke="black" d="M224.798,-918.517C203.368,-904.401 177.271,-887.212 154.092,-871.945"/>
<polygon fill="black" stroke="black" points="155.975,-868.994 145.699,-866.416 152.125,-874.84 155.975,-868.994"/>
</g>
<!-- n16 -->
<g id="node16" class="node"><title>n16</title>
<g id="a_node16"><a xlink:title="[[C]]:&#45;1_&#45;1">
<ellipse fill="none" stroke="black" cx="268.705" cy="-831.828" rx="78.145" ry="45.011"/>
<text text-anchor="middle" x="268.705" y="-848.628" font-family="Times,serif" font-size="14.00">Node16</text>
<text text-anchor="start" x="221.5" y="-834.628" font-family="Times,serif" font-size="14.00">input = {}</text>
<text text-anchor="start" x="221.5" y="-820.628" font-family="Times,serif" font-size="14.00">selectindex = 1</text>
<text text-anchor="middle" x="268.705" y="-806.628" font-family="Times,serif" font-size="14.00">reverseMap = {}</text>
</a>
</g>
</g>
<!-- n10&#45;&gt;n16 -->
<g id="edge17" class="edge"><title>n10&#45;&gt;n16</title>
<path fill="none" stroke="black" d="M268.705,-913.051C268.705,-904.994 268.705,-896.214 268.705,-887.515"/>
<polygon fill="black" stroke="black" points="272.205,-887.387 268.705,-877.388 265.205,-887.388 272.205,-887.387"/>
</g>
<!-- n17 -->
<g id="node17" class="node"><title>n17</title>
<g id="a_node17"><a xlink:title="[[C]]:&#45;1_&#45;2">
<ellipse fill="none" stroke="black" cx="477.705" cy="-831.828" rx="78.145" ry="45.011"/>
<text text-anchor="middle" x="477.705" y="-848.628" font-family="Times,serif" font-size="14.00">Node17</text>
<text text-anchor="start" x="430.5" y="-834.628" font-family="Times,serif" font-size="14.00">input = {}</text>
<text text-anchor="start" x="430.5" y="-820.628" font-family="Times,serif" font-size="14.00">selectindex = 2</text>
<text text-anchor="middle" x="477.705" y="-806.628" font-family="Times,serif" font-size="14.00">reverseMap = {}</text>
</a>
</g>
</g>
<!-- n10&#45;&gt;n17 -->
<g id="edge18" class="edge"><title>n10&#45;&gt;n17</title>
<path fill="none" stroke="black" d="M318.235,-920.277C346.471,-904.793 382.192,-885.205 412.665,-868.494"/>
<polygon fill="black" stroke="black" points="414.438,-871.514 421.523,-863.636 411.072,-865.376 414.438,-871.514"/>
</g>
<!-- n11 -->
<g id="node11" class="node"><title>n11</title>
<g id="a_node11"><a xlink:title="[nngraph_warmup.lua]:7_">
<ellipse fill="none" stroke="black" cx="248.705" cy="-608.507" rx="120.136" ry="35.2113"/>
<text text-anchor="middle" x="248.705" y="-618.307" font-family="Times,serif" font-size="14.00">Node11</text>
<text text-anchor="start" x="171.804" y="-604.307" font-family="Times,serif" font-size="14.00">module = nn.Linear(4 &#45;&gt; 2)</text>
<text text-anchor="middle" x="248.705" y="-590.307" font-family="Times,serif" font-size="14.00">reverseMap = {}</text>
</a>
</g>
</g>
<!-- n11&#45;&gt;n8 -->
<g id="edge10" class="edge"><title>n11&#45;&gt;n8</title>
<path fill="none" stroke="black" d="M251.017,-572.93C251.56,-564.799 252.147,-556.018 252.716,-547.513"/>
<polygon fill="black" stroke="black" points="256.221,-547.547 253.396,-537.336 249.237,-547.08 256.221,-547.547"/>
</g>
<!-- n12 -->
<g id="node12" class="node"><title>n12</title>
<g id="a_node12"><a xlink:title="[nngraph_warmup.lua]:10_">
<ellipse fill="none" stroke="black" cx="506.705" cy="-608.507" rx="120.136" ry="35.2113"/>
<text text-anchor="middle" x="506.705" y="-618.307" font-family="Times,serif" font-size="14.00">Node12</text>
<text text-anchor="start" x="429.804" y="-604.307" font-family="Times,serif" font-size="14.00">module = nn.Linear(5 &#45;&gt; 2)</text>
<text text-anchor="middle" x="506.705" y="-590.307" font-family="Times,serif" font-size="14.00">reverseMap = {}</text>
</a>
</g>
</g>
<!-- n12&#45;&gt;n9 -->
<g id="edge11" class="edge"><title>n12&#45;&gt;n9</title>
<path fill="none" stroke="black" d="M505.385,-572.93C505.074,-564.799 504.738,-556.018 504.414,-547.513"/>
<polygon fill="black" stroke="black" points="507.904,-547.195 504.025,-537.336 500.909,-547.462 507.904,-547.195"/>
</g>
<!-- n13 -->
<g id="node13" class="node"><title>n13</title>
<g id="a_node13"><a xlink:title="[[C]]:&#45;1_">
<ellipse fill="none" stroke="black" cx="268.705" cy="-1055.15" rx="78.145" ry="35.2113"/>
<text text-anchor="middle" x="268.705" y="-1064.95" font-family="Times,serif" font-size="14.00">Node13</text>
<text text-anchor="start" x="221.5" y="-1050.95" font-family="Times,serif" font-size="14.00">input = {}</text>
<text text-anchor="middle" x="268.705" y="-1036.95" font-family="Times,serif" font-size="14.00">reverseMap = {}</text>
</a>
</g>
</g>
<!-- n13&#45;&gt;n10 -->
<g id="edge12" class="edge"><title>n13&#45;&gt;n10</title>
<path fill="none" stroke="black" d="M268.705,-1019.57C268.705,-1011.44 268.705,-1002.66 268.705,-994.154"/>
<polygon fill="black" stroke="black" points="272.205,-993.978 268.705,-983.978 265.205,-993.978 272.205,-993.978"/>
</g>
<!-- n14 -->
<g id="node14" class="node"><title>n14</title>
<g id="a_node14"><a xlink:title="[nngraph_warmup.lua]:4_">
<ellipse fill="none" stroke="black" cx="261.705" cy="-715.217" rx="94.9112" ry="35.2113"/>
<text text-anchor="middle" x="261.705" y="-725.017" font-family="Times,serif" font-size="14.00">Node14</text>
<text text-anchor="start" x="202.739" y="-711.017" font-family="Times,serif" font-size="14.00">module = nn.Identity</text>
<text text-anchor="middle" x="261.705" y="-697.017" font-family="Times,serif" font-size="14.00">reverseMap = {}</text>
</a>
</g>
</g>
<!-- n14&#45;&gt;n11 -->
<g id="edge13" class="edge"><title>n14&#45;&gt;n11</title>
<path fill="none" stroke="black" d="M257.413,-679.641C256.403,-671.51 255.313,-662.729 254.257,-654.223"/>
<polygon fill="black" stroke="black" points="257.699,-653.539 252.994,-644.047 250.752,-654.402 257.699,-653.539"/>
</g>
<!-- n15 -->
<g id="node15" class="node"><title>n15</title>
<g id="a_node15"><a xlink:title="[nngraph_warmup.lua]:5_">
<ellipse fill="none" stroke="black" cx="493.705" cy="-715.217" rx="94.9112" ry="35.2113"/>
<text text-anchor="middle" x="493.705" y="-725.017" font-family="Times,serif" font-size="14.00">Node15</text>
<text text-anchor="start" x="434.739" y="-711.017" font-family="Times,serif" font-size="14.00">module = nn.Identity</text>
<text text-anchor="middle" x="493.705" y="-697.017" font-family="Times,serif" font-size="14.00">reverseMap = {}</text>
</a>
</g>
</g>
<!-- n15&#45;&gt;n12 -->
<g id="edge14" class="edge"><title>n15&#45;&gt;n12</title>
<path fill="none" stroke="black" d="M497.998,-679.641C499.008,-671.51 500.098,-662.729 501.154,-654.223"/>
<polygon fill="black" stroke="black" points="504.658,-654.402 502.417,-644.047 497.712,-653.539 504.658,-654.402"/>
</g>
<!-- n16&#45;&gt;n14 -->
<g id="edge15" class="edge"><title>n16&#45;&gt;n14</title>
<path fill="none" stroke="black" d="M265.999,-786.516C265.485,-778.097 264.946,-769.283 264.432,-760.854"/>
<polygon fill="black" stroke="black" points="267.922,-760.584 263.818,-750.816 260.935,-761.01 267.922,-760.584"/>
</g>
<!-- n17&#45;&gt;n15 -->
<g id="edge16" class="edge"><title>n17&#45;&gt;n15</title>
<path fill="none" stroke="black" d="M483.891,-786.516C485.067,-778.097 486.297,-769.283 487.474,-760.854"/>
<polygon fill="black" stroke="black" points="490.959,-761.203 488.875,-750.816 484.026,-760.236 490.959,-761.203"/>
</g>
</g>
</svg>
